Coordinates
version=1
nRows=10
nColumns=40
inDegrees=yes

Units are S.I. units (second, meters, Newtons, ...)
Angles are in degrees.

endheader
time	pelvis_tilt	pelvis_list	pelvis_rotation	pelvis_tx	pelvis_ty	pelvis_tz	hip_flexion_r	hip_adduction_r	hip_rotation_r	knee_angle_r	knee_angle_r_beta	ankle_angle_r	subtalar_angle_r	mtp_angle_r	hip_flexion_l	hip_adduction_l	hip_rotation_l	knee_angle_l	knee_angle_l_beta	ankle_angle_l	subtalar_angle_l	mtp_angle_l	lumbar_extension	lumbar_bending	lumbar_rotation	arm_flex_r	arm_add_r	arm_rot_r	elbow_flex_r	pro_sup_r	wrist_flex_r	wrist_dev_r	arm_flex_l	arm_add_l	arm_rot_l	elbow_flex_l	pro_sup_l	wrist_flex_l	wrist_dev_l
     10.50000000	     -1.70377945	     24.13404667	     86.01625186	      0.58796605	      1.03399591	     -0.97376588	    -26.99957589	     -4.25475997	      2.07658236	      6.91344867	      0.12066244	     11.61292386	      0.00000000	      0.00000000	      0.14858551	     -4.33181819	    -12.55382975	     44.28754174	      0.77296342	      6.58881774	      0.00000000	      0.00000000	    -45.05343672	     -2.14088231	     13.36842645	      8.50925967	    -15.07681522	     -1.53329215	    139.92900304	     83.59474051	      0.00000000	      0.00000000	     -5.06860720	     -2.72978698	     -2.79555422	    137.20970104	     82.22123537	      0.00000000	      0.00000000
     10.51000000	     -1.73417551	     24.17904734	     85.83232611	      0.58927460	      1.03371361	     -0.97215390	    -28.09121415	     -4.35541138	      1.86064800	      6.18884440	      0.10801571	     11.56198427	      0.00000000	      0.00000000	     -0.01525959	     -4.27876242	    -13.44837190	     41.29808266	      0.72078752	      6.71420102	      0.00000000	      0.00000000	    -45.10214727	     -2.29974319	     13.70879241	      8.05871047	    -14.79672698	     -2.00015246	    140.02629719	     83.46936785	      0.00000000	      0.00000000	     -5.17852985	     -1.69482261	     -2.60303707	    137.11512689	     82.07794338	      0.00000000	      0.00000000
     10.52000000	     -1.54594831	     23.72440848	     85.79856308	      0.59017847	      1.03245335	     -0.97004150	    -28.52245279	     -4.12171290	      1.64276449	      5.70405001	      0.09955445	     11.80387388	      0.00000000	      0.00000000	      0.61783274	     -4.51882499	    -14.08188445	     38.70780217	      0.67557859	      6.80568070	      0.00000000	      0.00000000	    -44.70932717	     -2.08700699	     13.98922705	      7.76963272	    -14.57181562	     -2.34773113	    139.97630598	     83.31386843	      0.00000000	      0.00000000	     -5.15813947	     -0.79127885	     -2.62223175	    136.88612342	     81.94878004	      0.00000000	      0.00000000
     10.53000000	     -1.20071016	     23.17987093	     85.85257670	      0.59070148	      1.03074907	     -0.96787076	    -28.81184132	     -3.67423245	      1.32098346	      5.36540011	      0.09364390	     12.00058417	      0.00000000	      0.00000000	      1.40120485	     -4.95094183	    -14.67234577	     36.24738816	      0.63263627	      6.75442228	      0.00000000	      0.00000000	    -44.26127919	     -1.64855758	     14.19824570	      7.48101654	    -14.48218767	     -2.58132943	    139.89778211	     83.19120977	      0.00000000	      0.00000000	     -5.18574907	      0.02867168	     -2.71904065	    136.87052767	     81.85131290	      0.00000000	      0.00000000
     10.54000000	     -1.18269745	     22.87965934	     85.54731449	      0.59156979	      1.02954101	     -0.96570331	    -29.30632943	     -3.80230300	      1.33150924	      4.98128741	      0.08693987	     12.05753256	      0.00000000	      0.00000000	      1.62271374	     -4.90163683	    -15.62093268	     33.31472225	      0.58145159	      6.29655878	      0.00000000	      0.00000000	    -44.07981911	     -1.78220780	     14.67785471	      7.12462572	    -14.49734726	     -3.08115077	    140.00147817	     83.07226045	      0.00000000	      0.00000000	     -4.99121961	      0.66288365	     -2.65624082	    136.68858800	     81.74328907	      0.00000000	      0.00000000
     10.55000000	     -0.71657620	     22.19121996	     85.60982041	      0.59188270	      1.02731573	     -0.96329221	    -29.34130646	     -3.23333694	      1.00138671	      4.79504946	      0.08368940	     12.39130064	      0.00000000	      0.00000000	      2.74261243	     -5.39274100	    -15.76058849	     31.18873487	      0.54434611	      6.24125928	      0.00000000	      0.00000000	    -43.55874856	     -1.18868957	     14.86302296	      7.08233742	    -14.53759408	     -3.26121519	    139.94727319	     82.96488562	      0.00000000	      0.00000000	     -4.93455331	      1.15174056	     -2.92074965	    136.76007537	     81.65319308	      0.00000000	      0.00000000
     10.56000000	     -0.55497975	     21.62441372	     85.57638290	      0.59195962	      1.02514717	     -0.96119684	    -29.51249436	     -3.09364527	      0.95374047	      4.58833963	      0.08008163	     12.68465465	      0.00000000	      0.00000000	      3.37816434	     -5.37469813	    -15.82685844	     28.42889002	      0.49617773	      5.68485033	      0.00000000	      0.00000000	    -43.11700229	     -0.94658182	     15.11536949	      6.86409721	    -14.69200495	     -3.58354311	    139.96882964	     82.84794732	      0.00000000	      0.00000000	     -4.73145444	      1.51475365	     -3.05184686	    136.62050501	     81.59579379	      0.00000000	      0.00000000
     10.57000000	     -0.03272715	     20.93135491	     85.65053831	      0.59185394	      1.02243330	     -0.95912330	    -29.55986407	     -2.49767061	      0.79439151	      4.42450962	      0.07722226	     12.97072957	      0.00000000	      0.00000000	      4.28052713	     -5.83789551	    -15.77673549	     26.11364871	      0.45576915	      5.56401310	      0.00000000	      0.00000000	    -42.57656416	     -0.26457472	     15.28650035	      6.83091521	    -14.92568552	     -3.70947081	    139.96073130	     82.76979357	      0.00000000	      0.00000000	     -4.67500299	      1.72929119	     -3.37014397	    136.69035085	     81.51572874	      0.00000000	      0.00000000
     10.58000000	      0.21832176	     20.35321230	     85.60768044	      0.59177993	      1.02001998	     -0.95698646	    -29.62041901	     -2.29074211	      0.66002305	      4.39579402	      0.07672108	     13.27293633	      0.00000000	      0.00000000	      4.87524829	     -5.89618877	    -15.60620955	     23.48904563	      0.40996118	      4.83782376	      0.00000000	      0.00000000	    -42.18076527	      0.06268167	     15.44798082	      6.85130646	    -15.18693385	     -3.85385489	    139.99985746	     82.73261291	      0.00000000	      0.00000000	     -4.49853149	      1.77486486	     -3.62500408	    136.71518641	     81.44240575	      0.00000000	      0.00000000
     10.59000000	      0.76748246	     19.71362699	     85.58343087	      0.59150407	      1.01733321	     -0.95492303	    -29.65102312	     -1.74966884	      0.68718212	      4.37088793	      0.07628639	     13.42917750	      0.00000000	      0.00000000	      5.61669190	     -6.29061575	    -15.21358539	     21.19420778	      0.36990871	      4.69014046	      0.00000000	      0.00000000	    -41.73697835	      0.71737548	     15.63317663	      6.96541477	    -15.55674336	     -3.86657085	    140.01472459	     82.71330417	      0.00000000	      0.00000000	     -4.35262340	      1.71985434	     -3.88643086	    136.73284572	     81.39213999	      0.00000000	      0.00000000
